<svg xmlns="http://www.w3.org/2000/svg" width="24" height="24" viewBox="0 0 24 24" fill="none" stroke="#64748b" stroke-width="2" stroke-linecap="round" stroke-linejoin="round">
  <title>Settings</title>
  <path d="M9.67 2h4.66l.72 2.6c.52.21 1 .49 1.46.84l2.62-.7 2.33 4.04-1.9 1.9c.04.28.06.57.06.86s-.02.58-.06.86l1.9 1.9-2.33 4.04-2.62-.7c-.46.35-.94.63-1.46.84l-.72 2.6H9.67l-.72-2.6a7.1 7.1 0 0 1-1.46-.84l-2.62.7-2.33-4.04 1.9-1.9a6.4 6.4 0 0 1-.06-.86c0-.29.02-.58.06-.86l-1.9-1.9 2.33-4.04 2.62.7c.46-.35.94-.63 1.46-.84L9.67 2Z"/>
  <circle cx="12" cy="12" r="3"/>
</svg>
